<svg width="50" height="50" viewBox="0 0 50 50" fill="none" xmlns="http://www.w3.org/2000/svg">
<path d="M24.6212 7.1665C20.7534 7.1665 17.0441 8.70296 14.3092 11.4379C11.5743 14.1728 10.0378 17.8821 10.0378 21.7498V29.0998C10.0381 29.423 9.96325 29.7418 9.81909 30.0311L6.24201 37.1832C6.06727 37.5326 5.98476 37.9209 6.00232 38.3111C6.01987 38.7014 6.13691 39.0807 6.34231 39.413C6.54771 39.7454 6.83466 40.0197 7.1759 40.2099C7.51713 40.4001 7.90134 40.4999 8.29201 40.4998H40.9503C41.341 40.4999 41.7252 40.4001 42.0665 40.2099C42.4077 40.0197 42.6946 39.7454 42.9 39.413C43.1054 39.0807 43.2225 38.7014 43.24 38.3111C43.2576 37.9209 43.1751 37.5326 43.0003 37.1832L39.4253 30.0311C39.2805 29.742 39.2049 29.4232 39.2045 29.0998V21.7498C39.2045 17.8821 37.6681 14.1728 34.9331 11.4379C32.1982 8.70296 28.4889 7.1665 24.6212 7.1665ZM24.6212 46.7498C23.3281 46.7505 22.0667 46.3501 21.0108 45.6039C19.9548 44.8576 19.1563 43.8022 18.7253 42.5832H30.517C30.086 43.8022 29.2875 44.8576 28.2316 45.6039C27.1756 46.3501 25.9142 46.7505 24.6212 46.7498Z" fill="#2D2D2D"/>
<circle cx="35.6211" cy="11" r="8" fill="#FF4D4D"/>
</svg>
