<svg width="100" height="100" viewBox="0 0 100 100" fill="none" xmlns="http://www.w3.org/2000/svg">
<rect x="0.5" y="0.5" width="99" height="99" rx="49.5" fill="#EFF3F4"/>
<rect x="0.5" y="0.5" width="99" height="99" rx="49.5" stroke="#EFF3F4"/>
<path d="M50 29.1667C47.2373 29.1667 44.5878 30.2642 42.6343 32.2177C40.6808 34.1712 39.5833 36.8207 39.5833 39.5834C39.5833 42.3461 40.6808 44.9956 42.6343 46.9491C44.5878 48.9026 47.2373 50.0001 50 50.0001C52.7627 50.0001 55.4122 48.9026 57.3657 46.9491C59.3192 44.9956 60.4167 42.3461 60.4167 39.5834C60.4167 36.8207 59.3192 34.1712 57.3657 32.2177C55.4122 30.2642 52.7627 29.1667 50 29.1667ZM33.3333 70.8334H66.6667C67.8125 70.8334 68.75 69.8959 68.75 68.7501V66.6668C68.75 58.6251 62.2083 52.0834 54.1667 52.0834H45.8333C37.7917 52.0834 31.25 58.6251 31.25 66.6668V68.7501C31.25 69.8959 32.1875 70.8334 33.3333 70.8334Z" fill="#9DABBE"/>
</svg>
