<svg width="36" height="40" viewBox="0 0 36 40" fill="none" xmlns="http://www.w3.org/2000/svg">
<path d="M0 35.4286V14.8571C0 14.1333 0.15975 13.4476 0.479249 12.8C0.798749 12.1524 1.239 11.619 1.8 11.2L15.3 0.914286C16.0875 0.304762 16.9875 0 18 0C19.0125 0 19.9125 0.304762 20.7 0.914286L34.2 11.2C34.7625 11.619 35.2035 12.1524 35.523 12.8C35.8425 13.4476 36.0015 14.1333 36 14.8571V35.4286C36 36.6857 35.559 37.7623 34.677 38.6583C33.795 39.5543 32.736 40.0015 31.5 40H24.75C24.1125 40 23.5785 39.7806 23.148 39.3417C22.7175 38.9029 22.5015 38.3604 22.5 37.7143V26.2857C22.5 25.6381 22.284 25.0956 21.852 24.6583C21.42 24.2209 20.886 24.0015 20.25 24H15.75C15.1125 24 14.5785 24.2194 14.148 24.6583C13.7175 25.0971 13.5015 25.6396 13.5 26.2857V37.7143C13.5 38.3619 13.284 38.9051 12.852 39.344C12.42 39.7828 11.886 40.0015 11.25 40H4.5C3.2625 40 2.2035 39.5528 1.323 38.6583C0.442499 37.7638 0.0015 36.6872 0 35.4286Z" fill="#2D2D2D"/>
</svg>
