<svg width="34" height="30" viewBox="0 0 34 30" fill="none" xmlns="http://www.w3.org/2000/svg">
<path d="M3.4 30C2.465 30 1.66487 29.6702 0.9996 29.0107C0.334333 28.3511 0.00113333 27.5573 0 26.6292V0.674157C0 0.477528 0.0850002 0.34382 0.255 0.273034C0.425 0.202247 0.580833 0.23764 0.7225 0.379213L2.8475 2.48595L5.0575 0.252809C5.2275 0.0842694 5.42583 0 5.6525 0C5.87917 0 6.0775 0.0842694 6.2475 0.252809L8.5 2.48595L10.7525 0.252809C10.9225 0.0842694 11.1208 0 11.3475 0C11.5742 0 11.7725 0.0842694 11.9425 0.252809L14.1525 2.48595L16.405 0.252809C16.575 0.0842694 16.7733 0 17 0C17.2267 0 17.425 0.0842694 17.595 0.252809L19.8475 2.48595L22.0575 0.252809C22.2275 0.0842694 22.4258 0 22.6525 0C22.8792 0 23.0775 0.0842694 23.2475 0.252809L25.5 2.48595L27.7525 0.252809C27.9225 0.0842694 28.1208 0 28.3475 0C28.5742 0 28.7725 0.0842694 28.9425 0.252809L31.1525 2.48595L33.2775 0.379213C33.4192 0.238764 33.575 0.203932 33.745 0.274719C33.915 0.345505 34 0.478651 34 0.674157V26.6292C34 27.5562 33.6668 28.35 33.0004 29.0107C32.334 29.6713 31.5339 30.0011 30.6 30H3.4ZM3.4 26.6292H15.3V16.5169H3.4V26.6292ZM18.7 26.6292H30.6V23.2584H18.7V26.6292ZM18.7 19.8876H30.6V16.5169H18.7V19.8876ZM3.4 13.1461H30.6V8.08989H3.4V13.1461Z" fill="url(#paint0_linear_391_1075)"/>
<defs>
<linearGradient id="paint0_linear_391_1075" x1="17" y1="0" x2="17" y2="30" gradientUnits="userSpaceOnUse">
<stop stop-color="#F597B6"/>
<stop offset="1" stop-color="#A3B3FA"/>
</linearGradient>
</defs>
</svg>
