<svg width="36" height="36" viewBox="0 0 36 36" fill="none" xmlns="http://www.w3.org/2000/svg">
<path d="M22.6405 0H13.3578L12.293 5.29691C11.4113 5.68973 10.5729 6.17231 9.79125 6.73691L4.63969 5.004L0 12.996L4.08339 16.5633C3.98478 17.5186 3.98478 18.4814 4.08339 19.4367L0 23.004L4.64134 30.996L9.79125 29.2647C10.5681 29.8244 11.4042 30.3087 12.293 30.7031L13.3578 36H22.6405L23.7054 30.7031C24.5871 30.3103 25.4254 29.8277 26.2071 29.2631L31.3587 30.996L36 23.004L31.915 19.4367C32.0136 18.4814 32.0136 17.5186 31.915 16.5633L35.9984 12.996L31.357 5.004L26.2087 6.73527C25.427 6.17124 24.5886 5.68921 23.707 5.29691L22.6405 0ZM17.9992 24.5455C16.2531 24.5455 14.5786 23.8558 13.344 22.6283C12.1093 21.4008 11.4157 19.736 11.4157 18C11.4157 16.264 12.1093 14.5992 13.344 13.3717C14.5786 12.1442 16.2531 11.4545 17.9992 11.4545C19.7452 11.4545 21.4197 12.1442 22.6544 13.3717C23.889 14.5992 24.5826 16.264 24.5826 18C24.5826 19.736 23.889 21.4008 22.6544 22.6283C21.4197 23.8558 19.7452 24.5455 17.9992 24.5455Z" fill="#EA63F1"/>
</svg>
