<svg width="36" height="36" viewBox="0 0 36 36" fill="none" xmlns="http://www.w3.org/2000/svg">
<path d="M21.942 21.942L7.2 28.8L14.058 14.058L28.8 7.2M18 0C15.6362 0 13.2956 0.465584 11.1117 1.37017C8.92784 2.27475 6.94353 3.60062 5.27208 5.27208C1.89642 8.64773 0 13.2261 0 18C0 22.7739 1.89642 27.3523 5.27208 30.7279C6.94353 32.3994 8.92784 33.7253 11.1117 34.6298C13.2956 35.5344 15.6362 36 18 36C22.7739 36 27.3523 34.1036 30.7279 30.7279C34.1036 27.3523 36 22.7739 36 18C36 15.6362 35.5344 13.2956 34.6298 11.1117C33.7253 8.92784 32.3994 6.94353 30.7279 5.27208C29.0565 3.60062 27.0722 2.27475 24.8883 1.37017C22.7044 0.465584 20.3638 0 18 0ZM18 16.02C17.4749 16.02 16.9713 16.2286 16.5999 16.5999C16.2286 16.9713 16.02 17.4749 16.02 18C16.02 18.5251 16.2286 19.0287 16.5999 19.4001C16.9713 19.7714 17.4749 19.98 18 19.98C18.5251 19.98 19.0287 19.7714 19.4001 19.4001C19.7714 19.0287 19.98 18.5251 19.98 18C19.98 17.4749 19.7714 16.9713 19.4001 16.5999C19.0287 16.2286 18.5251 16.02 18 16.02Z" fill="#2D2D2D"/>
</svg>
